<svg width="320" height="110" viewBox="0 0 320 110" fill="none" xmlns="http://www.w3.org/2000/svg">
<path d="M8.74597 50.5706C5.29279 47.3199 5.09077 47.1223 9.16629 49.9771L9.41863 49.7229C8.57846 45.2717 5.66207 44.0949 1.43174 44.382C1.2894 44.4837 1.33373 45.2526 1.34763 45.4841C1.54389 48.7288 5.4694 52.4816 8.74597 50.5706Z" fill="#49B649"/>
<path d="M8.91184 72.613C9.12177 71.7817 5.97221 73.4421 8.74362 71.7653C6.76445 70.1895 4.55906 72.916 4.70836 73.6303C4.95878 74.8279 8.56197 73.9996 8.91184 72.613Z" fill="#E43526"/>
<path d="M46.1137 20.2453C45.9802 19.8142 45.9485 19.3433 45.6593 18.9924C45.378 18.6178 44.5591 18.4927 44.4062 18.1203C44.2567 17.7568 44.6859 17.5319 44.9756 17.4113C47.4587 16.413 50.2965 17.4463 52.1367 19.2768C57.3273 24.3121 52.1957 30.8687 52.2074 37.0458C52.9867 45.0584 59.3565 50.0763 67.2591 49.5279C68.3813 49.5081 69.5864 49.1452 69.8265 50.2256C70.0791 53.3806 69.8893 56.6117 69.5783 59.7691C69.4714 60.5107 69.0678 60.7526 68.277 60.6233C67.7906 60.5861 66.9789 60.3993 66.4824 60.3181C65.5806 60.1791 64.6341 60.3613 63.7429 60.4725C59.288 61.0218 55.0823 63.6335 53.3874 67.9975C49.246 78.0742 60.6395 86.8613 49.1875 92.3574C49.0437 92.3357 49.1489 92.1395 49.4334 91.8343C50.094 91.1294 50.9752 90.3689 51.4293 89.5103C53.8777 85.2776 51.3126 80.7682 48.7676 77.0477C48.43 76.5272 47.9651 76.0313 47.3691 76.3738C44.1148 78.0699 33.5478 83.0247 31.5945 82.7275C31.0776 82.6458 32.0534 82.127 32.7078 81.663C35.8404 79.4164 39.2018 77.3145 41.5368 75.1191C46.3442 70.5979 46.8263 66.7211 49.9522 61.3523C50.1695 60.9628 50.551 60.3698 50.2982 59.9984C49.3711 59.2128 47.4734 59.5521 46.5304 59.0052C35.4002 53.4335 32.9238 40.072 21.252 34.6895C35.5976 35.7044 37.0808 50.7884 49.2414 50.0555C49.6526 49.9982 49.961 50.0236 50.2234 49.6993C50.4413 49.2027 49.8808 48.4016 49.6744 47.8275C44.407 35.7607 42.6638 35.0604 31.8145 27.1089C31.3656 26.8059 31.0769 26.4954 30.7208 26.3608C32.1303 28.0182 29.3611 25.9164 28.3924 25.4447C28.1768 25.3149 27.5954 25.0875 27.9239 25.5053C28.3424 26.114 30.1008 26.9675 30.9295 27.5893C31.1435 27.8824 30.6613 27.9902 30.4066 28.0666C29.2959 28.3348 27.8557 28.1743 26.7586 27.728C24.6249 26.823 23.3842 24.243 22.7403 22.1234C22.4353 20.7847 24.7006 21.377 25.4176 21.3499C27.3241 21.4736 30.0229 22.4439 30.7891 24.2642C31.3347 25.2552 31.3795 26.3199 32.3266 26.8518C34.1809 27.8252 43.7769 31.2305 47.2289 33.1538C47.8613 33.5984 48.4475 33.1344 48.8168 32.5315C51.9301 28.1765 54.4624 22.6976 49.9057 18.737C49.6802 18.6969 49.6622 19.1255 49.6172 19.6982C49.5678 20.225 49.47 20.8364 49.1666 21.2728C48.2745 22.6208 46.4669 21.6256 46.1403 20.3311L46.1137 20.2453Z" fill="#1351D8"/>
<path d="M40.848 55.2355C42.6311 56.9319 44.9793 58.0621 47.0692 59.3049C45.6606 59.4373 42.1811 61.3086 40.9321 62.1873C35.1791 66.2339 33.1268 73.1495 21.5957 75.0732V74.7342C30.8896 71.3018 33.4786 60.8766 40.848 55.2355Z" fill="#1351D8"/>
<path d="M25.0488 54.9808C29.5245 50.1011 33.809 48.3641 38.5002 54.133C38.4398 54.6144 31.9432 54.7734 31.186 54.7265V55.0656L38.5002 55.4894C33.7901 61.3891 29.7829 59.6166 25.0488 54.9808Z" fill="#1351D8"/>
<path d="M38.8358 95.4189H38.3314C37.8559 94.0355 36.56 91.1422 36.4818 90.7563C35.4248 85.5253 38.0162 80.8525 42.9552 79.1419L40.6853 84.1436H41.0215C42.2468 81.8204 43.3312 78.8768 43.8799 80.7525C45.7647 87.1927 36.4883 92.0472 38.8358 95.4189Z" fill="#1351D8"/>
<path d="M15.6309 42.4341C16.5022 39.1912 18.5465 36.0108 22.2724 36.4149C25.3419 36.7479 22.1516 37.6147 20.9273 39.2975L23.7857 37.4322C22.0385 42.5438 23.3685 38.7028 26.9804 39.4669C27.9887 39.6803 30.3911 42.3776 30.0911 42.7731C28.3671 42.9778 26.5727 41.5335 26.6441 42.3493L29.9229 43.6211C26.2181 45.9842 23.9501 44.9021 22.6086 40.8233C20.6295 43.5551 15.8403 43.2265 15.6309 42.4341Z" fill="#1351D8"/>
<path d="M36.3202 23.1036C35.8817 19.9747 37.0742 18.2242 38.0015 15.4737C38.6433 15.0733 38.2016 16.4916 39.5149 18.8648C41.0718 21.6781 45.5727 23.7961 43.6345 29.6313L40.692 24.799H40.3558L43.13 30.3096C40.2086 29.6054 36.7399 26.0974 36.3202 23.1036Z" fill="#1351D8"/>
<path d="M53.6347 94.4888C53.5208 93.5254 53.8824 90.3503 54.2232 90.3349L56.9134 94.9127L57.1657 94.6585L54.6435 90.25C54.6258 89.7532 57.2374 90.8571 58.0905 91.5216C60.5214 93.4161 60.6208 96.7724 60.1921 99.5753C59.4586 100.676 54.0404 97.9263 53.6347 94.4888Z" fill="#1351D8"/>
<path d="M53.6345 17.3422C53.2794 13.1525 56.2214 10.7844 60.1079 10.3059C61.3295 15.0504 59.5519 18.4359 54.8955 19.8008L54.6434 19.5463C57.7719 15.0202 56.8591 14.9581 54.2231 19.4617C54.104 19.4509 53.6527 17.5566 53.6345 17.3422Z" fill="#1351D8"/>
<path d="M36.3186 68.3741C36.1253 67.5307 40.5308 60.8358 45.3983 66.6786C45.4038 67.2323 42.3983 67.4995 41.9513 67.4415V67.7806L45.4824 67.4415C46.3199 67.6602 43.3312 70.7526 41.9513 71.0022C39.0611 71.5249 36.3917 68.6923 36.3186 68.3741Z" fill="#1351D8"/>
<path d="M31.4485 82.5319C31.4315 82.737 31.5755 82.6812 31.6167 82.7015C31.1049 87.7365 27.0643 89.2413 22.5371 88.3815C23.4892 85.2884 24.3804 82.3453 27.8336 81.5145C34.3608 81.7008 29.8048 81.7144 27.3291 84.7359C28.5527 83.7471 30.1578 83.3092 31.4485 82.5319Z" fill="#1351D8"/>
<path d="M38.3301 95.4179H38.8345C39.0286 95.6968 41.0382 97.1612 41.6088 97.7916L41.8611 97.5374C38.4295 94.8901 37.6922 92.8033 42.4495 94.4006C45.5381 95.4375 46.8727 100.769 45.8123 101.183C38.2505 102.138 38.9682 97.2745 38.3301 95.4179Z" fill="#1351D8"/>
<path d="M30.7773 72.2776C33.3396 70.0213 37.2217 69.5837 39.3525 72.6166C41.6569 75.8965 37.9085 73.5859 37.0827 73.5491C34.82 73.4488 39.9119 74.8671 39.857 75.3296C35.7299 77.8913 33.2746 75.65 30.7773 72.2776Z" fill="#1351D8"/>
<path d="M31.1016 37.1804C33.3894 33.5009 35.9542 31.8518 40.013 34.2981C35.4999 36.1053 35.0961 36.3052 40.1812 35.1458C38.7764 39.6346 34.3249 40.3236 31.1016 37.1804Z" fill="#1351D8"/>
<path d="M22.1883 68.972C22.1955 68.9816 22.2276 68.9459 22.3565 69.1416C22.6875 69.6437 23.1179 71.6344 23.5334 72.2782C23.3915 73.0355 20.1708 69.6167 19.8343 70.2435L23.1972 73.1259C19.0011 74.8063 16.2012 71.0402 15.6309 67.1917C17.9716 66.5289 20.6973 66.9832 22.1883 68.972Z" fill="#1351D8"/>
<path d="M20.6934 78.3789C24.1135 74.774 27.0045 75.0234 29.4368 79.3962C23.1645 78.3441 24.8774 77.8494 29.1003 80.4136C24.6682 82.0863 23.5839 82.2992 20.6934 78.3789Z" fill="#1351D8"/>
<path d="M13.2852 82.2792C13.4687 78.6682 15.4206 74.9108 19.4223 75.0732C19.5543 75.1549 19.5114 75.3206 19.5064 75.497C19.4949 75.8994 13.5955 82.4534 19.9267 75.7512C20.9483 82.3437 13.6163 82.9246 13.2852 82.2792Z" fill="#1351D8"/>
<path d="M20.8496 31.7521C23.2474 27.7387 24.9733 27.6232 29.0886 29.3783C25.1418 31.4901 23.8544 31.8833 29.1727 30.1412C29.9115 30.2893 27.5446 33.5871 25.9779 33.8716C23.899 34.2488 22.2532 33.1655 20.8496 31.7521Z" fill="#1351D8"/>
<path d="M38.6841 14.1211C38.3489 7.35756 46.3063 8.41478 46.5869 9.03461C46.0702 13.5457 45.7729 14.2842 41.1222 13.5276C45.0935 9.62327 40.3784 13.293 38.6841 14.1211Z" fill="#1351D8"/>
<path d="M8.05859 69.3929C8.11179 68.4681 14.7857 65.8407 16.2976 72.2753L12.3462 70.6645V71.0037L15.9614 72.9536C12.1046 75.0279 9.77248 72.8026 8.05859 69.3929Z" fill="#1351D8"/>
<path d="M45.5693 26.1556C44.7291 20.855 50.693 22.7505 51.1178 25.1383C51.5835 27.7546 48.5425 30.5797 49.6048 27.6816C48.6841 25.0977 49.379 27.7662 48.9321 28.5293C48.0802 29.984 45.743 27.2512 45.5693 26.1556Z" fill="#1351D8"/>
<path d="M25.2215 60.5719C25.1601 59.3961 28.8608 59.3531 29.8453 59.6394C30.8973 59.9453 32.402 61.5958 32.956 62.6066L32.7037 62.8608C28.3099 61.6507 29.1781 62.3014 33.1242 63.4543C28.829 66.3681 25.2926 61.9351 25.2215 60.5719Z" fill="#1351D8"/>
<path d="M25.3926 49.3819C26.2692 45.9225 29.5901 43.962 32.7909 45.9908C28.8369 47.9371 29.3459 47.1921 33.1271 46.8385C31.2604 49.8901 28.7434 51.1573 25.3926 49.3819Z" fill="#1351D8"/>
<path d="M30.9346 89.3968C30.5495 86.7602 31.7438 85.6104 34.0451 84.7342C34.3751 84.914 32.787 87.7164 33.3727 87.6166L34.7177 85.0732C37.4384 89.4558 33.0925 92.2795 32.532 92.1944C32.0762 92.1253 31.0017 89.8562 30.9346 89.3968Z" fill="#1351D8"/>
<path d="M28.7549 33.2731C28.4942 32.2877 31.7511 27.5714 35.1444 30.3907L32.5381 31.4929V31.8319C37.9697 29.435 33.9831 33.6491 32.5381 34.036C31.3238 34.3613 28.9236 33.9111 28.7549 33.2731Z" fill="#1351D8"/>
<path d="M28.7564 76.6855C28.6989 75.4294 33.1708 74.1769 35.3139 78.3809C35.2556 78.8516 31.1777 77.3162 34.9776 79.2288C31.9206 81.8065 28.7998 77.6347 28.7564 76.6855Z" fill="#1351D8"/>
<path d="M41.6973 91.6085C41.6899 91.4207 42.6022 89.5124 44.6398 89.8283C45.5068 89.9626 46.1004 91.0242 46.9938 91.1846C45.7551 92.5509 48.7611 92.3876 46.9938 93.2193C45.2358 94.0465 41.7476 92.8829 41.6973 91.6085Z" fill="#1351D8"/>
<path d="M43.2189 87.5364C43.3363 85.8007 50.4399 88.9015 48.7675 91.4362C48.524 91.8054 45.5003 90.0675 44.9843 89.6559C44.6532 89.3913 43.2005 87.8083 43.2189 87.5364Z" fill="#1351D8"/>
<path d="M20.0101 65.4951C19.936 65.1061 21.6907 62.8817 22.9526 62.6975C25.2038 62.3689 24.0185 63.1917 24.0456 63.291C24.0887 63.45 24.5754 63.3118 24.55 63.4604C24.2522 65.2015 20.2737 66.88 20.0101 65.4951Z" fill="#1351D8"/>
<path d="M45.0649 18.9478C46.0443 18.2451 46.1256 19.5968 45.9056 20.4738C45.3879 22.5382 42.0184 23.6631 43.8878 20.2193C43.9293 20.1432 44.9947 18.9983 45.0649 18.9478Z" fill="#1351D8"/>
<path d="M13.1221 35.3107C13.0097 34.1633 22.7517 35.5475 18.4185 36.2432C16.7116 36.5172 13.1487 35.5832 13.1221 35.3107Z" fill="#1351D8"/>
<path d="M13.1212 74.8209C13.1008 74.535 16.4347 73.4181 18.4177 73.7187C22.7731 74.3792 13.1773 75.6024 13.1212 74.8209Z" fill="#1351D8"/>
<path d="M30.6028 8.18318C30.5026 7.3014 30.8134 6.23186 31.2755 5.47042C33.1401 2.39592 35.0538 6.11442 35.1427 6.65716C35.5578 9.19593 31.7308 13.9796 33.125 8.18318H32.7885L32.3682 11.1504C31.7037 10.6441 30.6859 8.91562 30.6028 8.18318Z" fill="#D9B927"/>
<path d="M20.853 55.1494L16.061 54.8951V54.5559L20.6848 54.132C16.696 49.9807 13.5706 50.7139 9.92383 54.8103C13.7894 58.9479 16.8211 59.3811 20.853 55.1494Z" fill="#E43526"/>
<path d="M29.423 20.7325C24.4024 16.4572 24.2226 15.7043 29.6751 20.139L29.9274 19.8848C29.9191 18.0202 28.846 15.5631 27.3211 14.5439C25.6552 13.4299 20.8823 12.7042 20.8478 14.2894C20.8341 14.9177 21.7929 17.7186 22.1929 18.3588C23.6274 20.6549 26.9514 21.9021 29.423 20.7325Z" fill="#49B649"/>
<path d="M51.9492 8.01716C51.9775 8.35088 52.5739 10.6446 52.8739 10.6453C55.9614 5.16908 55.9892 4.55915 53.7146 10.9844C59.2871 9.77927 59.452 5.61734 57.0774 1.1502C53.3506 1.88144 51.6223 4.16865 51.9492 8.01716Z" fill="#49B649"/>
<path d="M53.5552 98.9813C56.2282 105.54 56.2121 105.525 52.8826 99.3203C52.2662 99.118 51.9063 102.034 51.958 103.135C52.1059 106.285 54.1289 108.161 57.0863 108.815C59.4978 104.117 59.1989 100.275 53.5552 98.9813Z" fill="#49B649"/>
<path d="M29.6735 89.6538C24.9301 93.6971 24.9591 93.2858 29.2532 89.0603C24.0785 87.2842 21.2479 93.2814 22.0231 95.8424C22.0475 95.9234 22.3545 96.3999 22.4434 96.4359C30.0709 97.3006 30.2556 89.749 29.6735 89.6538Z" fill="#D9B927"/>
<path d="M45.564 42.7746C36.87 40.9453 45.7725 42.4225 45.9002 41.7573C42.9124 37.6782 39.4238 37.1048 36.4844 41.5876C39.4604 45.3276 41.9325 46.8486 45.564 42.7746Z" fill="#49B649"/>
<path d="M9.58815 59.3932C3.90202 63.291 4.86752 63.0167 9.08371 58.5455C4.68756 56.9281 1.66932 61.2324 1.68561 65.3276C5.84597 66.4223 9.89992 63.9916 9.58815 59.3932Z" fill="#49B649"/>
<path d="M9.58408 54.8128C9.45899 53.9139 0.317281 55.0028 9.41585 53.7955C6.25742 50.0166 2.55981 50.9764 0 54.8128C3.31635 58.7435 6.20662 58.4726 9.58408 54.8128Z" fill="#D9B927"/>
<path d="M52.9725 15.3065C53.5011 11.7639 51.2363 9.52672 48.0122 8.77858C47.5619 8.90496 47.0206 11.956 47.0877 12.7631C47.2734 15.0054 49.8296 17.1293 51.7956 16.8325L50.3664 13.3566C51.6516 15.2509 52.5119 18.3941 52.9725 15.3065Z" fill="#D9B927"/>
<path d="M48.0108 101.017C50.9677 100.455 53.1479 98.3232 52.971 95.167C52.7321 90.9062 51.3154 94.8362 50.533 96.2692C49.6619 96.533 52.2248 92.8894 51.5418 92.7084C48.9389 93.6325 47.0127 94.7649 47.086 97.88C47.0951 98.2678 47.6966 100.905 48.0108 101.017Z" fill="#49B649"/>
<path d="M19.8428 34.6358L17.4888 32.0924L17.7409 31.8382C20.4457 35.3087 20.9557 33.6926 19.6746 30.736C18.5233 28.0788 13.2506 26.5117 13.2853 28.5319C13.3347 31.4216 16.4097 35.9315 19.8428 34.6358Z" fill="#E43526"/>
<path d="M49.016 88.8076C49.3218 88.7702 51.3369 85.6816 50.9496 83.1276C50.7347 81.7104 48.7512 79.8139 48.5957 80.5843C49.1957 80.9052 48.8569 83.7615 48.3433 83.5515C49.7177 78.0349 45.4452 81.2899 45.5691 84.3144C45.6515 86.323 47.2621 88.0273 49.016 88.8076Z" fill="#D9B927"/>
<path d="M60.9498 9.62609C63.0373 5.20101 63.5542 5.2027 61.3701 9.71091L61.6224 10.1348C67.4049 8.13898 64.7413 1.07919 64.1444 0.978907C61.8532 2.1294 59.9277 4.47219 60.025 7.16755C60.036 7.47517 60.5275 9.69206 60.9498 9.62609Z" fill="#49B649"/>
<path d="M61.4544 99.9986C63.7101 105.292 63.6596 105.586 60.95 100.338C60.7154 100.334 60.0363 102.539 60.0252 102.796C59.9164 105.374 62.1935 108.232 64.649 108.815C66.5522 105.045 65.5474 101.35 61.4544 99.9986Z" fill="#49B649"/>
<path d="M15.9846 36.8354C12.3445 35.1971 9.4942 37.2636 8.25 40.7352C14.2728 44.489 16.824 38.2711 16.489 37.6831C12.1063 39.2846 12.4861 39.6299 15.9846 36.8354Z" fill="#49B649"/>
<path d="M49.4313 4.79229L49.6834 4.70747C50.1987 4.91215 51.092 13.9339 52.1218 3.26627C50.4661 0.221248 49.6334 -1.09091 48.0863 1.06219C47.3209 2.12738 46.8488 3.97986 47.0774 5.30096C47.3345 6.7859 52.244 11.7692 49.4313 4.79229Z" fill="#49B649"/>
<path d="M30.425 14.7949C27.766 8.98424 30.0287 13.8114 30.7612 14.6253C31.5051 15.4515 31.6002 11.8918 31.2657 10.7256C30.7457 8.91222 27.2158 6.65836 26.3895 8.0128C26.0701 8.53694 25.7866 10.8906 25.8851 11.5735C26.2453 14.0644 30.3503 15.4254 30.425 14.7949Z" fill="#49B649"/>
<path d="M12.4425 34.4603C7.25744 29.8472 12.6213 34.3013 12.9469 33.6126C12.5352 32.2516 11.9208 30.2363 10.5089 29.628C9.31306 29.1131 5.70819 28.8794 5.71681 30.5606C5.72592 32.3739 8.46618 36.7611 12.4425 34.4603Z" fill="#49B649"/>
<path d="M12.8723 76.7659L10.098 78.0374C10.3336 77.5885 12.7575 76.4989 12.7882 76.342C13.0427 75.0403 6.52284 73.4555 6.0625 80.2418C12.1208 82.7303 13.6125 76.9802 12.8723 76.7659Z" fill="#49B649"/>
<path d="M50.1164 101.946C50.1234 101.864 50.8167 101.867 50.2005 101.353C48.6362 102.52 47.1921 103.464 47.258 105.676C47.3064 107.299 48.5403 108.842 49.5279 110C53.0951 108.101 52.4706 104.55 51.0412 101.353C49.832 104.677 49.5765 108.307 50.1164 101.946Z" fill="#49B649"/>
<path d="M22.3635 69.1398C24.5133 70.4048 27.2224 70.6214 28.921 68.5463C31.8959 64.9121 26.3216 67.8264 26.7353 67.0203L29.4254 66.0032C25.7249 63.0906 23.5926 65.1347 22.1953 68.9702C22.2025 68.9798 22.2346 68.9441 22.3635 69.1398Z" fill="#49B649"/>
<path d="M17.4821 45.3168C13.5894 43.4411 11.2318 46.3337 10.252 49.8949C10.4053 50.3001 13.5393 50.8953 15.3802 49.81C16.5278 49.1334 18.2952 46.0113 17.5662 45.9103C14.147 48.1434 14.663 47.3061 17.4821 45.3168Z" fill="#E43526"/>
<path d="M30.768 95.6709C28.2672 100.124 28.6547 98.8384 30.4318 95.1622C27.4181 95.5636 25.8154 97.034 26.2281 100.249C26.561 102.841 27.9693 102.685 29.8433 101.351C32.5253 99.4414 31.6161 94.6526 30.768 95.6709Z" fill="#49B649"/>
<path d="M17.8248 26.1538C17.8443 26.408 18.3856 28.4337 18.5814 28.4427C20.2795 25.3522 21.2845 24.2186 19.1699 28.3578L19.4223 28.6123C24.3154 27.7837 23.1846 20.1297 20.7674 20.9825C19.2375 21.5221 17.6425 23.7667 17.8248 26.1538Z" fill="#D9B927"/>
<path d="M36.9074 9.96468C38.4039 6.69008 38.9625 5.4294 37.4959 9.87986L37.748 10.3037C42.991 7.8297 40.2065 2.81451 39.5978 2.67387C39.2105 2.58446 35.4619 4.14141 35.8144 7.67577C35.841 7.94135 36.4489 10.0019 36.9074 9.96468Z" fill="#49B649"/>
<path d="M18.91 47.4363C18.5319 47.605 18.651 48.5245 18.6579 48.8775C18.7135 51.721 21.5643 54.3144 24.3747 53.1163L21.7684 50.4883C24.0572 51.8382 25.1437 54.0075 24.8792 51.4209C24.6058 48.7492 21.3558 47.1045 18.91 47.4363Z" fill="#49B649"/>
<path d="M37.4893 99.9146C38.958 104.111 38.7035 103.486 36.9007 100.169C36.5578 100.211 35.9055 102.766 35.976 103.475C36.1423 105.147 39.3764 107.685 40.3477 107.036C41.3501 106.366 42.1289 101.022 37.4893 99.9146Z" fill="#49B649"/>
<path d="M19.157 81.603C21.0684 85.6001 20.4393 84.612 18.5685 81.6878C18.3475 81.739 17.81 84.3554 17.9799 85.5027C18.1829 86.8729 20.9826 89.9498 21.8472 88.8938C23.2568 87.1723 23.3049 82.1812 19.157 81.603Z" fill="#E43526"/>
<path d="M16.7327 63.5436L16.9848 63.2893C16.7149 62.4943 16.4813 61.5995 15.9761 60.9156C14.204 58.517 10.21 58.7715 10.0911 59.8983C9.98637 60.8903 12.4597 66.2358 16.4806 64.1371C14.2864 62.0243 13.5431 61.3586 16.7327 63.5436Z" fill="#49B649"/>
<path d="M30.7792 21.2418C30.9134 22.7815 34.0886 26.148 33.6681 23.2262C34.7316 26.6395 36.4742 21.2703 34.6465 18.6984C33.4622 17.032 32.4325 16.618 31.4519 18.529C31.1272 19.1614 30.72 20.5618 30.7792 21.2418Z" fill="#D9B927"/>
<path d="M23.1144 60.6616C24.7816 59.4568 26.2266 55.4734 22.4418 58.6269L22.1897 58.3727L24.5436 56.6771C20.3739 54.5568 18.0794 59.805 18.4906 61.0855C18.7056 61.7553 21.5994 61.7565 23.1144 60.6616Z" fill="#49B649"/>
<path d="M62.3809 13.6089L64.8189 13.6937V14.0328C59.3284 13.5096 65.1971 19.5371 69.2748 13.6089C67.2513 11.0457 64.0871 10.3268 62.3809 13.6089Z" fill="#E43526"/>
<path d="M36.0595 92.37C34.7295 95.5776 35.3234 95.6717 35.2189 92.2004C33.5184 93.5799 32.2026 94.5589 32.6126 97.0326C32.6735 97.3997 33.6912 99.2435 34.0418 99.3218C35.2984 99.6018 39.1966 95.9498 36.0595 92.37Z" fill="#E43526"/>
<path d="M64.8189 98.1359C66.8336 98.4628 69.062 96.2629 69.1065 96.0164C69.3009 94.9439 64.2004 90.9176 62.3809 95.3383L64.7348 95.6773C60.4959 95.2378 63.9201 97.9899 64.8189 98.1359Z" fill="#D9B927"/>
<path d="M70.5447 7.42165L70.7129 7.76068C64.9697 9.22387 71.8785 11.5099 73.6554 8.35417C76.1196 3.97742 67.4066 3.9982 68.1066 8.35417L70.5447 7.42165Z" fill="#D9B927"/>
<path d="M69.1888 100.17C66.7114 101.067 70.3273 101.709 70.8703 102.544C68.8811 102.219 67.8777 100.536 68.0958 102.459C68.1322 102.779 69.3486 104.391 69.6932 104.579C71.264 105.432 74.1982 104.128 74.317 103.646C74.5818 102.571 72.6961 98.9012 69.1888 100.17Z" fill="#E43526"/>
<path d="M35.3944 17.7627C35.8301 17.5092 35.3165 16.265 35.1421 14.8803C35.1289 14.8489 34.7833 14.8542 35.0582 14.202C35.5677 14.5823 35.1224 14.7235 35.1421 14.8803C35.1509 14.9011 35.4263 14.8141 35.4785 14.9651C35.6137 15.3566 35.7944 17.7231 36.0671 17.7627C39.3983 14.1621 35.1541 10.5959 34.0493 10.8109C33.0452 11.0064 31.1591 15.6072 35.3944 17.7627Z" fill="#E43526"/>
<path d="M33.2037 98.9824C32.9295 103.318 33.4316 102.479 32.363 98.8128C31.3517 100.136 30.6287 101.394 30.9338 103.136C31.0766 103.953 32.8142 105.966 33.2037 105.934C33.6209 105.9 37.5972 102.665 33.2037 98.9824Z" fill="#49B649"/>
<path d="M42.9649 7.76137C44.1156 4.54042 44.4954 2.9233 43.5534 7.33752L43.8055 7.59173C47.7535 5.7274 45.164 1.28444 44.6464 1.14887C44.0552 0.993973 41.3588 2.66232 41.5357 4.96379C41.5668 5.36831 42.58 7.7952 42.9649 7.76137Z" fill="#D9B927"/>
<path d="M44.2161 104.834H43.8798C43.0555 100.001 41.5772 103.97 41.8621 105.682C42.0548 106.84 44.6251 109.153 45.5611 108.225C46.1837 107.608 46.4363 105.33 46.0656 104.325C45.8051 103.619 42.2297 100.325 44.2161 104.834Z" fill="#E43526"/>
<path d="M18.7458 20.1367C19.4928 20.0374 17.8635 14.7605 19.5865 20.1367C22.8753 17.0919 17.8486 12.0096 16.8122 15.3045C16.7034 15.6505 16.5867 17.1214 16.644 17.5085C16.8093 18.6233 17.951 19.463 18.7458 20.1367Z" fill="#E43526"/>
<path d="M19.9277 89.8234C18.1458 94.9872 19.7073 90.1912 19.2551 89.8234C17.8539 90.5832 16.8477 91.7496 16.9852 93.4687C17.3284 97.7556 21.2534 94.4851 21.0207 91.9429C20.9762 91.4582 20.0823 89.8169 19.9277 89.8234Z" fill="#49B649"/>
<path d="M15.6333 85.335H15.2971L15.5492 82.8765C14.5372 83.8808 13.5599 84.5987 13.6155 86.1827C13.6606 87.4601 14.1885 89.6753 15.7174 88.8109C19.2317 86.8241 15.8737 79.3525 15.6333 85.335Z" fill="#49B649"/>
<path d="M15.2064 26.9198C15.8941 26.7798 14.2775 21.4019 16.047 27.2588C18.9011 24.0159 15.5867 20.8534 14.7019 20.8159C13.8081 20.7777 13.3245 23.8764 13.441 24.6309C13.5567 25.3802 14.6607 26.3746 15.2064 26.9198Z" fill="#49B649"/>
<path d="M12.9348 66.3407C11.1219 63.6789 7.96682 64.8483 8.0586 65.832C8.23833 67.7577 12.6021 68.1548 12.5985 67.019C12.5973 66.6792 10.6347 66.5976 12.9348 66.3407Z" fill="#49B649"/>
<path d="M70.448 67.5275C70.4531 66.0377 65.6924 65.6815 65.4037 67.1885C65.0258 69.1613 70.442 69.3524 70.448 67.5275Z" fill="#49B649"/>
<path d="M24.6319 46.5883C24.5224 43.9717 20.0778 43.016 20.0081 44.1297C19.9841 44.5094 21.5432 46.3503 21.9415 46.5883C28.0975 48.7728 21.4766 44.7851 24.6319 46.5883Z" fill="#E43526"/>
<path d="M12.9347 43.7931C9.88439 43.4961 12.7517 43.5705 12.7665 43.1148C12.7787 42.7448 9.54914 41.1074 8.05859 44.4714C9.8149 45.7374 11.5964 45.5373 12.9347 43.7931Z" fill="#49B649"/>
<path d="M8.58329 38.3647C6.34148 36.3728 8.74768 38.1281 8.75152 37.517C8.75847 36.3931 4.54516 35.0126 4.37981 36.4997C4.32732 36.9711 6.58256 39.7371 8.58329 38.3647Z" fill="#D9B927"/>
<path d="M68.8602 28.1063C67.0701 27.4461 65.217 28.736 65.5814 29.5475C66.4628 31.5094 71.542 29.0954 68.8602 28.1063Z" fill="#E43526"/>
<path d="M12.454 27.1761C12.2347 25.7117 10.2807 25.4384 10.6045 27.5151C10.8844 29.3113 12.8655 29.9255 12.454 27.1761Z" fill="#D9B927"/>
<path d="M11.7576 81.9433C12.4116 80.3037 10.4631 81.6504 10.917 83.4693C11.536 85.9513 13.6714 81.3055 11.7576 81.9433Z" fill="#E43526"/>
<path d="M35.1414 14.8838C35.1282 14.8524 34.7819 14.8577 35.0572 14.2055C35.5673 14.5858 35.1217 14.727 35.1414 14.8838Z" fill="#49B649"/>
<mask id="mask0_526_20787" style="mask-type:luminance" maskUnits="userSpaceOnUse" x="76" y="15" width="51" height="46">
<path d="M76.3379 15.6222V60.9395H111.027C119.982 60.9395 126.056 55.5163 126.056 46.5399C126.056 41.8023 123.363 38.2498 119.919 36.816C122.487 35.6316 125.179 32.9514 125.179 27.4655C125.179 19.6123 119.043 15.6222 109.838 15.6222H76.3379ZM86.1059 25.2841H108.523C112.718 25.2841 115.223 26.3438 115.223 29.7096C115.223 32.64 113.594 34.0738 110.026 34.0738H99.4439C95.1898 34.0738 91.7419 37.5061 91.7419 41.7403H110.715C114.222 41.7403 116.1 43.4855 116.1 46.4771C116.1 49.7817 113.407 51.2775 109.275 51.2775H86.1059V25.2841Z" fill="white"/>
</mask>
<g mask="url(#mask0_526_20787)">
<rect x="76.0703" y="15.4189" width="50.0811" height="45.7235" fill="#1351D8"/>
</g>
<mask id="mask1_526_20787" style="mask-type:luminance" maskUnits="userSpaceOnUse" x="131" y="15" width="11" height="46">
<path d="M131.951 51.2148C131.951 56.5851 136.324 60.9395 141.719 60.9395V25.3461C141.719 19.9757 137.346 15.6222 131.951 15.6222V51.2148Z" fill="white"/>
</mask>
<g mask="url(#mask1_526_20787)">
<rect x="131.92" y="15.4189" width="9.96089" height="45.7235" fill="#1351D8"/>
</g>
<mask id="mask2_526_20787" style="mask-type:luminance" maskUnits="userSpaceOnUse" x="147" y="15" width="46" height="47">
<path d="M183.08 15.6255V33.7649H162.917C162.917 38.3778 166.674 42.1177 171.308 42.1177H183.08V61.0674H192.848V15.6255H183.08ZM147.514 61.0674H157.282V15.6254H147.514V61.0674Z" fill="white"/>
</mask>
<g mask="url(#mask2_526_20787)">
<rect x="147.441" y="15.4189" width="45.6541" height="45.7235" fill="#1351D8"/>
</g>
<mask id="mask3_526_20787" style="mask-type:luminance" maskUnits="userSpaceOnUse" x="198" y="15" width="62" height="46">
<path d="M224.435 18.1187L198.574 60.9424H209.657L228.756 28.7156L237.084 42.6782H235.599C230.157 42.6782 225.123 45.549 222.368 50.2208H241.591L247.978 60.9424H259.688L233.828 18.1187C232.7 16.2487 231.26 15.0023 229.132 15.0023C227.002 15.0023 225.562 16.2487 224.435 18.1187Z" fill="white"/>
</mask>
<g mask="url(#mask3_526_20787)">
<rect x="198.494" y="14.8711" width="61.4255" height="46.2744" fill="#1351D8"/>
</g>
<mask id="mask4_526_20787" style="mask-type:luminance" maskUnits="userSpaceOnUse" x="265" y="15" width="55" height="46">
<path d="M265.387 15.6222V60.9395H275.092V25.3469H298.448C303.081 25.3469 305.837 27.9024 305.837 32.702C305.837 37.5016 303.207 40.3065 298.448 40.3065H280.79C280.79 44.8857 284.518 48.5965 289.118 48.5965H294.941L306.025 60.9395H319.863L306.213 47.2882C311.911 45.0441 315.417 39.8704 315.417 32.4526C315.417 22.1678 309.092 15.6222 298.448 15.6222H265.387Z" fill="white"/>
</mask>
<g mask="url(#mask4_526_20787)">
<rect x="265.242" y="15.4189" width="54.7849" height="45.7235" fill="#1351D8"/>
</g>
<path d="M76.3379 90.9073V68.1588H76.3402C78.988 68.1588 81.1354 70.2957 81.1354 72.9316V95.4482H80.8995C78.38 95.4482 76.3379 93.4153 76.3379 90.9073Z" fill="#49B649"/>
<path d="M111.286 95.8652L95.2573 79.5292C94.8376 79.1505 94.3811 78.6952 93.9246 78.3165V90.7489C93.9246 93.3442 91.8102 95.4482 89.2031 95.4482V67.7418H89.3553L105.347 84.0396L106.679 85.3288V72.8589C106.679 70.2628 108.793 68.1588 111.4 68.1588V95.8652H111.286Z" fill="#49B649"/>
<path d="M141.552 95.8652L125.523 79.5292C125.103 79.1505 124.647 78.6952 124.19 78.3165V90.7489C124.19 93.3442 122.076 95.4482 119.469 95.4482V67.7418H119.621L135.612 84.0396L136.945 85.3288V72.8589C136.945 70.2628 139.058 68.1588 141.666 68.1588V95.8652H141.552Z" fill="#49B649"/>
<path d="M162.035 91.5423C167.48 91.5423 171.401 87.3349 171.401 81.8016C171.401 76.3057 167.48 72.0609 162.035 72.0609C156.59 72.0609 152.631 76.3057 152.631 81.8016C152.631 87.3349 156.59 91.5423 162.035 91.5423ZM162.035 67.6637C170.069 67.6637 176.237 73.8421 176.237 81.8016C176.237 89.7611 170.183 95.9395 162.035 95.9395C153.926 95.9395 147.834 89.7611 147.834 81.8016C147.834 73.9561 153.926 67.6637 162.035 67.6637Z" fill="#49B649"/>
<path d="M191.09 95.8652H190.937L177.84 68.1588C180.991 68.1588 183.849 69.9996 185.139 72.8612L186.711 76.3455C188.348 80.0602 189.719 83.0541 190.975 86.276C192.156 83.3953 193.755 79.8329 195.316 76.3455L196.868 72.8696C198.147 70.005 201 68.1588 204.149 68.1588L191.09 95.8652Z" fill="#49B649"/>
<path d="M218.5 86.465C216.939 82.9783 215.644 79.9079 214.503 76.8C213.322 79.6424 211.913 83.1298 210.428 86.465H218.5ZM214.388 67.741H214.54L227.523 95.4482C224.466 95.4482 221.693 93.6594 220.445 90.8812L220.061 90.0281H208.867L208.484 90.8812C207.234 93.6594 204.462 95.4482 201.404 95.4482L214.388 67.741Z" fill="#49B649"/>
<path d="M239.096 74.2734V91.5666C239.096 93.7104 237.35 95.4473 235.198 95.4473C234.701 95.4473 234.298 95.0463 234.298 94.5521V74.219C234.298 73.0905 233.38 72.1754 232.246 72.1754H226.303C226.303 69.9566 228.11 68.1578 230.339 68.1578H247.091C247.091 70.3766 245.285 72.1754 243.056 72.1754H241.203C240.04 72.1754 239.096 73.115 239.096 74.2734Z" fill="#49B649"/>
<path d="M252.271 90.6724V68.158C254.921 68.158 257.069 70.2965 257.069 72.9339V95.4482C254.419 95.4482 252.271 93.3097 252.271 90.6724Z" fill="#49B649"/>
<path d="M277.436 91.5423C282.88 91.5423 286.802 87.3349 286.802 81.8016C286.802 76.3057 282.88 72.0609 277.436 72.0609C271.991 72.0609 268.031 76.3057 268.031 81.8016C268.031 87.3349 271.991 91.5423 277.436 91.5423ZM277.436 67.6637C285.47 67.6637 291.638 73.8421 291.638 81.8016C291.638 89.7611 285.583 95.9395 277.436 95.9395C269.326 95.9395 263.234 89.7611 263.234 81.8016C263.234 73.9561 269.326 67.6637 277.436 67.6637Z" fill="#49B649"/>
<path d="M319.886 95.8652L303.857 79.5292C303.437 79.1505 302.981 78.6952 302.524 78.3165V90.7489C302.524 93.3442 300.41 95.4482 297.803 95.4482V67.7418H297.955L313.946 84.0396L315.279 85.3288V72.8589C315.279 70.2628 317.392 68.1588 320 68.1588V95.8652H319.886Z" fill="#49B649"/>
</svg>
